<svg width="20" height="21" viewBox="0 0 20 21" fill="none" xmlns="http://www.w3.org/2000/svg">
<path d="M16.075 14.9084L15 13.8334V9.66671C15 7.10837 13.6334 4.96671 11.25 4.40004V3.83337C11.25 3.14171 10.6917 2.58337 10 2.58337C9.30838 2.58337 8.75004 3.14171 8.75004 3.83337V4.40004C6.35838 4.96671 5.00004 7.10004 5.00004 9.66671V13.8334L3.92504 14.9084C3.40004 15.4334 3.76671 16.3334 4.50838 16.3334H15.4834C16.2334 16.3334 16.6 15.4334 16.075 14.9084ZM13.3334 14.6667H6.66671V9.66671C6.66671 7.60004 7.92504 5.91671 10 5.91671C12.075 5.91671 13.3334 7.60004 13.3334 9.66671V14.6667ZM10 18.8334C10.9167 18.8334 11.6667 18.0834 11.6667 17.1667H8.33338C8.33338 17.6087 8.50897 18.0327 8.82153 18.3452C9.13409 18.6578 9.55802 18.8334 10 18.8334Z" fill="#C4C4C4"/>
</svg>
