<svg width="24" height="24" viewBox="0 0 24 24" fill="none" xmlns="http://www.w3.org/2000/svg">
<path d="M15.5355 16.9477L12 13.4122L8.46447 16.9477C8.27693 17.1353 8.02258 17.2406 7.75736 17.2406C7.49214 17.2406 7.23779 17.1353 7.05025 16.9477C6.86272 16.7602 6.75736 16.5059 6.75736 16.2406C6.75736 15.9754 6.86272 15.7211 7.05025 15.5335L10.5858 11.998L7.05025 8.46247C6.86272 8.27493 6.75736 8.02058 6.75736 7.75536C6.75736 7.49014 6.86272 7.23579 7.05025 7.04825C7.23779 6.86072 7.49214 6.75536 7.75736 6.75536C8.02258 6.75536 8.27693 6.86072 8.46447 7.04825L12 10.5838L15.5355 7.04825C15.7231 6.86072 15.9774 6.75536 16.2426 6.75536C16.5079 6.75536 16.7622 6.86072 16.9497 7.04825C17.1373 7.23579 17.2426 7.49014 17.2426 7.75536C17.2426 8.02058 17.1373 8.27493 16.9497 8.46247L13.4142 11.998L16.9497 15.5335C17.1373 15.7211 17.2426 15.9754 17.2426 16.2406C17.2426 16.5059 17.1373 16.7602 16.9497 16.9477C16.7622 17.1353 16.5079 17.2406 16.2426 17.2406C15.9774 17.2406 15.7231 17.1353 15.5355 16.9477Z" fill="black"/>
</svg>
