<svg width="40" height="20" viewBox="0 0 40 20" fill="none" xmlns="http://www.w3.org/2000/svg">
<path d="M13.9229 5.2448C14.0002 5.3219 14.0615 5.41347 14.1033 5.51428C14.1451 5.61509 14.1666 5.72316 14.1666 5.8323C14.1666 5.94144 14.1451 6.04951 14.1033 6.15032C14.0615 6.25113 14.0002 6.34271 13.9229 6.4198L10.6896 9.65314L13.9229 12.8865C14.0787 13.0423 14.1663 13.2536 14.1663 13.474C14.1663 13.6943 14.0787 13.9057 13.9229 14.0615C13.7671 14.2173 13.5558 14.3048 13.3354 14.3048C13.1151 14.3048 12.9037 14.2173 12.7479 14.0615L8.92292 10.2365C8.84567 10.1594 8.78438 10.0678 8.74256 9.96699C8.70074 9.86618 8.67922 9.75811 8.67922 9.64897C8.67922 9.53983 8.70074 9.43176 8.74256 9.33095C8.78438 9.23014 8.84567 9.13856 8.92292 9.06147L12.7479 5.23647C13.0646 4.9198 13.5979 4.9198 13.9229 5.2448Z" fill="#383838"/>
<path d="M10.6042 5.24482C10.6815 5.32191 10.7428 5.41349 10.7846 5.5143C10.8264 5.61511 10.8479 5.72318 10.8479 5.83232C10.8479 5.94146 10.8264 6.04953 10.7846 6.15034C10.7428 6.25115 10.6815 6.34273 10.6042 6.41982L7.37089 9.65315L10.6042 12.8865C10.76 13.0423 10.8476 13.2536 10.8476 13.474C10.8476 13.6943 10.76 13.9057 10.6042 14.0615C10.4484 14.2173 10.2371 14.3048 10.0167 14.3048C9.79636 14.3048 9.58503 14.2173 9.42922 14.0615L5.60422 10.2365C5.52697 10.1594 5.46568 10.0678 5.42386 9.96701C5.38204 9.8662 5.36052 9.75813 5.36052 9.64899C5.36052 9.53985 5.38204 9.43178 5.42386 9.33097C5.46568 9.23016 5.52697 9.13858 5.60422 9.06149L9.42922 5.23649C9.74589 4.91982 10.2792 4.91982 10.6042 5.24482Z" fill="#383838"/>
<path d="M32.2416 5.59173C32.3189 5.66882 32.3802 5.76039 32.422 5.86121C32.4638 5.96202 32.4854 6.07009 32.4854 6.17923C32.4854 6.28837 32.4638 6.39643 32.422 6.49725C32.3802 6.59806 32.3189 6.68963 32.2416 6.76673L29.0083 10.0001L32.2416 13.2334C32.3975 13.3892 32.485 13.6005 32.485 13.8209C32.485 14.0412 32.3975 14.2526 32.2416 14.4084C32.0858 14.5642 31.8745 14.6517 31.6541 14.6517C31.4338 14.6517 31.2225 14.5642 31.0666 14.4084L27.2416 10.5834C27.1644 10.5063 27.1031 10.4147 27.0613 10.3139C27.0195 10.2131 26.9979 10.105 26.9979 9.99589C26.9979 9.88675 27.0195 9.77868 27.0613 9.67787C27.1031 9.57706 27.1644 9.48549 27.2416 9.40839L31.0666 5.58339C31.3833 5.26673 31.9166 5.26673 32.2416 5.59173Z" fill="#383838"/>
</svg>
