<svg width="40" height="20" viewBox="0 0 40 20" fill="none" xmlns="http://www.w3.org/2000/svg">
<path d="M7.75835 5.59173C7.6811 5.66882 7.61981 5.76039 7.57799 5.86121C7.53617 5.96202 7.51465 6.07009 7.51465 6.17923C7.51465 6.28837 7.53617 6.39643 7.57799 6.49725C7.61981 6.59806 7.6811 6.68963 7.75835 6.76673L10.9917 10.0001L7.75835 13.2334C7.60254 13.3892 7.515 13.6005 7.515 13.8209C7.515 14.0412 7.60254 14.2526 7.75835 14.4084C7.91417 14.5642 8.1255 14.6517 8.34585 14.6517C8.56621 14.6517 8.77754 14.5642 8.93335 14.4084L12.7584 10.5834C12.8356 10.5063 12.8969 10.4147 12.9387 10.3139C12.9805 10.2131 13.0021 10.105 13.0021 9.99589C13.0021 9.88675 12.9805 9.77868 12.9387 9.67787C12.8969 9.57706 12.8356 9.48549 12.7584 9.40839L8.93335 5.58339C8.61669 5.26673 8.08335 5.26673 7.75835 5.59173Z" fill="#383838"/>
<path d="M26.0771 5.2448C25.9998 5.3219 25.9385 5.41347 25.8967 5.51428C25.8549 5.61509 25.8334 5.72316 25.8334 5.8323C25.8334 5.94144 25.8549 6.04951 25.8967 6.15032C25.9385 6.25113 25.9998 6.34271 26.0771 6.4198L29.3104 9.65314L26.0771 12.8865C25.9213 13.0423 25.8337 13.2536 25.8337 13.474C25.8337 13.6943 25.9213 13.9057 26.0771 14.0615C26.2329 14.2173 26.4442 14.3048 26.6646 14.3048C26.8849 14.3048 27.0963 14.2173 27.2521 14.0615L31.0771 10.2365C31.1543 10.1594 31.2156 10.0678 31.2574 9.96699C31.2993 9.86618 31.3208 9.75811 31.3208 9.64897C31.3208 9.53983 31.2993 9.43176 31.2574 9.33095C31.2156 9.23014 31.1543 9.13856 31.0771 9.06147L27.2521 5.23647C26.9354 4.9198 26.4021 4.9198 26.0771 5.2448Z" fill="#383838"/>
<path d="M29.3958 5.24482C29.3185 5.32191 29.2572 5.41349 29.2154 5.5143C29.1736 5.61511 29.1521 5.72318 29.1521 5.83232C29.1521 5.94146 29.1736 6.04953 29.2154 6.15034C29.2572 6.25115 29.3185 6.34273 29.3958 6.41982L32.6291 9.65315L29.3958 12.8865C29.24 13.0423 29.1524 13.2536 29.1524 13.474C29.1524 13.6943 29.24 13.9057 29.3958 14.0615C29.5516 14.2173 29.7629 14.3048 29.9833 14.3048C30.2036 14.3048 30.415 14.2173 30.5708 14.0615L34.3958 10.2365C34.473 10.1594 34.5343 10.0678 34.5761 9.96701C34.618 9.8662 34.6395 9.75813 34.6395 9.64899C34.6395 9.53985 34.618 9.43178 34.5761 9.33097C34.5343 9.23016 34.473 9.13858 34.3958 9.06149L30.5708 5.23649C30.2541 4.91982 29.7208 4.91982 29.3958 5.24482Z" fill="#383838"/>
</svg>
