<svg width="18" height="18" viewBox="0 0 18 18" fill="none" xmlns="http://www.w3.org/2000/svg">
<path fill-rule="evenodd" clip-rule="evenodd" d="M14.25 9.6525C14.25 9.3 13.995 9.015 13.65 8.9175C13.1756 8.78664 12.7573 8.50372 12.4592 8.11218C12.1612 7.72063 11.9998 7.24209 12 6.75V3H12.75C13.1625 3 13.5 2.6625 13.5 2.25C13.5 1.8375 13.1625 1.5 12.75 1.5H5.25C4.8375 1.5 4.5 1.8375 4.5 2.25C4.5 2.6625 4.8375 3 5.25 3H6V6.75C6 7.785 5.3025 8.655 4.35 8.9175C4.005 9.015 3.75 9.3 3.75 9.6525V9.75C3.75 10.1625 4.0875 10.5 4.5 10.5H8.235L8.25 15.75C8.25 16.1625 8.5875 16.5 9 16.5C9.4125 16.5 9.75 16.1625 9.75 15.75L9.735 10.5H13.5C13.9125 10.5 14.25 10.1625 14.25 9.75V9.6525Z" fill="black"/>
</svg>
